<?xml version="1.0" encoding="utf-8"?>
<!-- Generator: Adobe Illustrator 24.0.0, SVG Export Plug-In . SVG Version: 6.00 Build 0)  -->
<svg version="1.1" id="Layer_1" xmlns="http://www.w3.org/2000/svg" xmlns:xlink="http://www.w3.org/1999/xlink" x="0px" y="0px"
	 viewBox="0 0 70 70" style="enable-background:new 0 0 70 70;" xml:space="preserve">
<style type="text/css">
	.st0{fill:#00203F;}
</style>
<title>Search v2.5</title>
<desc>Created with Sketch.</desc>
<path class="st0" d="M63.6,59c0-0.2,0.1-0.3,0.1-0.5c0,0,0-0.1,0-0.1c0-0.1,0-0.2,0-0.3c0,0,0-0.1,0-0.1c0-0.2-0.1-0.4-0.1-0.6
	c0,0,0,0,0,0c0-0.1-0.1-0.2-0.1-0.4c-0.2-0.5-0.5-0.9-0.8-1.3L50,43.3c-0.7-0.7-0.7-1.8-0.3-2.6c0,0,0.2-0.3,0.7-1.2
	c1.5-2.9,2.2-6,2.2-9.5C52.6,18,43,8.3,31,8.3C19,8.3,9.3,18.1,9.3,30S19,51.5,31,51.5c3.4,0,6.6-0.7,9.5-2.1
	c0.9-0.5,1.2-0.7,1.2-0.7c0.7-0.5,2.2-1.7,2.8-1l12.9,12.5c1,1,1.8,1.6,2.8,1.4c0.1,0,0.1,0,0.2,0c1.5,0,2.7-1,3.1-2.3
	C63.6,59.3,63.6,59.2,63.6,59C63.6,59.1,63.6,59.1,63.6,59z M31,46.3c-9.3,0-16.8-7.5-16.8-16.8S21.7,12.8,31,12.8
	s16.8,7.5,16.8,16.8S40.2,46.3,31,46.3z"/>
</svg>
