<?xml version="1.0" encoding="utf-8"?>
<!-- Generator: Adobe Illustrator 24.0.0, SVG Export Plug-In . SVG Version: 6.00 Build 0)  -->
<svg version="1.1" xmlns="http://www.w3.org/2000/svg" xmlns:xlink="http://www.w3.org/1999/xlink" x="0px" y="0px"
	 viewBox="0 0 100 103" style="enable-background:new 0 0 100 103;" xml:space="preserve">
<style type="text/css">
	.st0{fill:#00203F;}
</style>
<g id="Layer_2">
</g>
<g id="Layer_1">
	<g>
		<path class="st0" d="M35.2,79.7c1.6,0,3-1.3,3-3V50c0-1.6-1.3-3-3-3c-1.6,0-3,1.3-3,3v26.7C32.2,78.4,33.5,79.7,35.2,79.7z"/>
		<path class="st0" d="M50,79.7c1.6,0,3-1.3,3-3V50c0-1.6-1.3-3-3-3c-1.6,0-3,1.3-3,3v26.7C47,78.4,48.4,79.7,50,79.7z"/>
		<path class="st0" d="M64.8,79.7c1.6,0,3-1.3,3-3V50c0-1.6-1.3-3-3-3c-1.6,0-3,1.3-3,3v26.7C61.9,78.4,63.2,79.7,64.8,79.7z"/>
		<path class="st0" d="M88.6,14.4H64.8v-3c0-4.9-4-8.9-8.9-8.9H44.1c-4.9,0-8.9,4-8.9,8.9v3H11.4c-4.9,0-8.9,4-8.9,8.9v3
			c0,4.9,4,8.9,8.9,8.9h0.3l5.2,54.3c0.4,4.6,4.2,8.1,8.9,8.1h48.6c4.6,0,8.4-3.5,8.9-8.1l5.2-54.3h0.3c4.9,0,8.9-4,8.9-8.9v-3
			C97.5,18.4,93.5,14.4,88.6,14.4z M41.1,11.4c0-1.6,1.3-3,3-3H56c1.6,0,3,1.3,3,3v3H41.1V11.4z M77.2,88.9c-0.1,1.5-1.4,2.7-3,2.7
			H25.7c-1.5,0-2.8-1.2-3-2.7l-5.1-53.7h64.7L77.2,88.9z M91.6,26.2c0,1.6-1.3,3-3,3H11.4c-1.6,0-3-1.3-3-3v-3c0-1.6,1.3-3,3-3h77.2
			c1.6,0,3,1.3,3,3V26.2z"/>
	</g>
</g>
</svg>
